<?xml version="1.0" encoding="utf-8"?>
<!-- Generator: Adobe Illustrator 23.0.3, SVG Export Plug-In . SVG Version: 6.00 Build 0)  -->
<svg version="1.1" id="logosvg.com" xmlns="http://www.w3.org/2000/svg" xmlns:xlink="http://www.w3.org/1999/xlink" x="0px"
	 y="0px" viewBox="0 0 400 300" style="enable-background:new 0 0 400 300;" xml:space="preserve">
<style type="text/css">
	.st0{fill:#FFFFFF;}
	.st1{fill:#FF7800;}
	.st2{fill:#04121A;}
</style>
<path id="white" class="st0" d="M120.6,183c6.6-9.2,10.5-20.4,10.6-32.5c0.2-31.2-24.9-56.7-56.1-56.9
	c-31.2-0.2-56.7,24.9-56.9,56.1c-0.1,12.3,3.8,23.8,10.4,33.1c1.6,2.3,3.4,4.5,5.4,6.5l0,0c10.2,10.5,24.4,17.1,40.2,17.3
	c17.7,0.1,33.5-7.9,44-20.6l0,0C119.1,185,119.9,184,120.6,183L120.6,183L120.6,183z"/>
<path id="orange" class="st1" d="M66.7,107.6c7.2-5,17.2-2.3,20.9,5.7l33,69.7c6.6-9.2,10.5-20.4,10.6-32.5
	c0.3-31.2-24.9-56.6-56.1-56.9c-31.2-0.2-56.7,24.9-56.9,56.1c-0.1,12.3,3.8,23.8,10.4,33.1l1.3-0.3l21.5-4.7c0.6-0.1,0.9,0.7,0.4,1
	l-17.8,10.6c10.2,10.5,24.4,17.1,40.2,17.3c17.7,0.1,33.5-7.9,44-20.6l-53.9-56.8C58.4,122.8,59.5,112.6,66.7,107.6 M76.8,171.7
	l-34.7,3c-3.8,0.3-6.9-2.8-6.6-6.6s3.8-6.4,7.5-5.5l33.9,8C77.5,170.7,77.5,171.6,76.8,171.7 M60.8,141.2l42.1,34
	c0.5,0.4,0,1.2-0.5,0.9l-50.6-19.2c-5.3-2-7.5-8.3-4.7-13.2C49.8,138.8,56.4,137.6,60.8,141.2"/>
<path id="text" class="st2" d="M381.9,177.1v5.3c-3.3,0.6-6.6,0.9-9.9,0.8c-3.2-0.1-6.1-0.6-8.6-1.7c-2.5-1.1-4.5-2.8-5.8-5.2
	c-1.2-2.2-1.9-4.5-1.9-6.8c0-2.3-0.1-4.9-0.1-7.8v-17.9h-6.8v-5.6c0-2.4,2-4.5,4.5-4.5h2.3v-7.7c0-2.4,2-4.5,4.5-4.5h7.7v12.2h14
	v5.6c0,2.4-2,4.5-4.5,4.5h-9.4v17.2c0,1.9,0,3.6,0,5.1c0,1.5,0.3,2.7,0.9,3.6c1,1.7,2.8,2.7,5.2,2.8c1,0,2.1,0.1,3.2,0
	C379.7,172.6,381.9,174.6,381.9,177.1z M193,122.7l21.6,59.8h-9.9c-1.9,0-3.6-1.2-4.2-2.9l-3.9-10.5h-28.8l-3.9,10.5
	c-0.6,1.8-2.3,2.9-4.2,2.9h-9.9l23.3-64.7h13C189.1,117.8,191.9,119.7,193,122.7z M192.4,157.8l-10.3-27.8l-10.3,27.8H192.4z
	 M299,151.1v31.3h-6.3c-2.4,0-4.3-1.8-4.5-4.2c-3.2,3.1-8,5.5-14.8,5.5c-13.4,0-16.9-10.1-16.9-14.7c0-4.7,1.7-13.2,15.5-15.5
	l15-2.6c-0.5-5.3-2.7-7.3-8.3-7.3c-4.5,0-6.3,1.7-7.9,3.6c-1.2,1.5-3.2,2-5,1.4l-7.4-2.6c3.4-8.9,10.1-13.5,20.3-13.5
	C290.8,132.6,299,138.1,299,151.1z M287.8,160.4c-2.2,0.4-5.5,1-9.6,1.7c-7.5,1.3-9.7,4.5-9.7,7.5c0,3,2.3,4.6,7,4.6
	c6,0,12.3-4.4,12.3-10.7V160.4z M247.6,133.9c-1.9,0-3.6,1.2-4.2,2.9l-11,29.9l-11-29.9c-0.6-1.8-2.4-2.9-4.2-2.9h-9.4l18.5,48.5
	h12.2l18.5-48.5H247.6z M340,156.5c-0.1-0.1-0.3-0.2-0.4-0.3c0,0,0,0,0,0c-0.1,0-0.1-0.1-0.2-0.1c-0.5-0.3-0.9-0.5-1.4-0.8
	c-1.8-0.9-3.7-1.6-3.7-1.6c-0.8-0.3-1.6-0.6-2.5-0.9c-8.3-2.8-12.3-3.5-12.3-6.2c0-2.4,2.9-3.7,6.1-3.7c2,0,4.8,0.6,7.1,3.4l0,0
	c0,0,0.1,0.1,0.1,0.2c0,0,0,0,0,0.1c0.8,0.8,1.9,1.4,3.2,1.4c0.5,0,1-0.1,1.4-0.2h0l6.8-2.4c-2.3-7.8-9.5-12.9-19.2-12.9
	c-3.8,0-6.8,0.6-9.3,1.6c-5,1.9-8.5,6.6-8.5,12.2c0,5.3,3.2,9.9,7.7,11.9c2.2,1.1,4.8,2.1,8,3c8.7,2.6,10.8,4.3,10.8,7.4
	c0,0.4,0,0.7-0.1,1c-0.2,0.6-0.5,1.2-0.9,1.6c-1.2,1.3-3.5,1.9-6.5,1.9c-3.7,0-7.1-1.5-9.4-5.4c-1.1-1.8-3.3-2.6-5.3-1.9l-6.8,2.4
	c2.8,8.2,8.5,15.4,21.4,15.4c5.9,0,10.5-1.3,13.9-3.6v0c3.8-2.6,6.2-6.9,6.2-11.8C346.3,163.5,343.8,159.1,340,156.5z"/>
</svg>
