<?xml version="1.0" encoding="utf-8"?>
<!-- Generator: Adobe Illustrator 23.0.3, SVG Export Plug-In . SVG Version: 6.00 Build 0)  -->
<svg version="1.1" id="logosvg.com" xmlns:svg="http://www.w3.org/2000/svg"
	 xmlns="http://www.w3.org/2000/svg" xmlns:xlink="http://www.w3.org/1999/xlink" x="0px" y="0px" viewBox="0 0 400 300"
	 style="enable-background:new 0 0 400 300;" xml:space="preserve">
<style type="text/css">
	.st0{fill-rule:evenodd;clip-rule:evenodd;fill:#00447C;}
</style>
<path id="logo" class="st0" d="M176.2,112.5c-20.6,0-37.3,16.7-37.3,37.3c0,20.6,16.7,37.3,37.3,37.3c20.6,0,37.3-16.7,37.3-37.3
	C213.6,129.2,196.9,112.5,176.2,112.5z M176.2,173.5c-13.1,0-23.7-10.6-23.7-23.7s10.6-23.7,23.7-23.7c13.1,0,23.7,10.6,23.7,23.7
	S189.3,173.5,176.2,173.5z M271.5,126.1h-12.6v54c0,3.8-3,6.8-6.8,6.8c-3.8,0-6.8-3-6.8-6.8v-54h-9.8v54c0,3.8-3,6.8-6.8,6.8
	c-3.8,0-6.8-3-6.8-6.8v-54h-11.3c-3.8,0-6.8-3-6.8-6.8c0-3.8,3-6.8,6.8-6.8h60.8c3.8,0,6.8,3,6.8,6.8
	C278.3,123,275.2,126.1,271.5,126.1z M366.8,119.3v60.8c0,3.8-3,6.8-6.8,6.8c-3.8,0-6.8-3-6.8-6.8v-39.5l0,0.5L324,183
	c-2.1,3.1-6.1,4.1-8.3,4.2c-18.8,0-34.3-13.9-36.9-31.9v24.8c0,3.8-3,6.8-6.8,6.8s-6.8-3-6.8-6.8v-41.7c0-3.8,3-6.8,6.8-6.8
	s6.8,3,6.8,6.8v6c2.6-18.1,18.1-31.9,36.9-31.9c6.6,0,12.9,1.8,18.3,4.8c1.8,1.2,3.1,3.3,3.1,5.7c0,3.8-3,6.8-6.8,6.8
	c-1.3,0-2.4-0.3-3.4-0.9c-3.3-1.8-7-2.7-11.1-2.7c-13.1,0-23.7,10.6-23.7,23.7c0,12.4,9.6,22.6,21.8,23.6l39.9-56.8
	c1.1-2.4,3.4-4.1,6.2-4.1C363.8,112.5,366.8,115.5,366.8,119.3z M145.9,175.8c2.4,2.9,1.9,7.2-1,9.6c-2.9,2.4-7.2,1.9-9.6-1
	l-19.6-24.3l-19.6,24.3c-2.4,2.9-6.6,3.4-9.6,1c-2.9-2.4-3.4-6.6-1-9.6l21.5-26.5l-8.7-10.7l0,6.2c0,12.9-10.4,23.3-23.3,23.3
	c-12.9,0-23.3-10.4-23.3-23.3l0-25.5c0-3.8,3-6.8,6.8-6.8c3.8,0,6.8,3,6.8,6.8l0,25.5c0,5.4,4.3,9.7,9.7,9.7c5.4,0,9.7-4.4,9.7-9.7
	l0-25.5c0-3.8,3-6.8,6.8-6.8c2.4,0,4.5,1.3,5.7,3.2l18.5,22.8l18.9-23.3c2.4-2.9,6.6-3.4,9.6-1c2.9,2.4,3.4,6.6,1,9.6l-20.7,25.6
	L145.9,175.8z M81.8,179.9c0,3.8-3,6.8-6.8,6.8H41.8c-0.5,0.1-1,0.2-1.5,0.2c-3.8,0-6.8-3-6.8-6.8v-60.8c0-3.8,3-6.8,6.8-6.8
	s6.8,3,6.8,6.8v53.8H75C78.8,173.1,81.8,176.1,81.8,179.9z"/>
</svg>
