<?xml version="1.0" encoding="utf-8"?>
<!-- Generator: Adobe Illustrator 23.0.3, SVG Export Plug-In . SVG Version: 6.00 Build 0)  -->
<svg version="1.1"
	 id="logosvg.com" xmlns:cc="http://creativecommons.org/ns#" xmlns:dc="http://purl.org/dc/elements/1.1/" xmlns:inkscape="http://www.inkscape.org/namespaces/inkscape" xmlns:rdf="http://www.w3.org/1999/02/22-rdf-syntax-ns#" xmlns:sodipodi="http://sodipodi.sourceforge.net/DTD/sodipodi-0.dtd" xmlns:svg="http://www.w3.org/2000/svg"
	 xmlns="http://www.w3.org/2000/svg" xmlns:xlink="http://www.w3.org/1999/xlink" x="0px" y="0px" viewBox="0 0 400 300"
	 style="enable-background:new 0 0 400 300;" xml:space="preserve">
<style type="text/css">
	.st0{fill-rule:evenodd;clip-rule:evenodd;}
</style>
<path id="logo" class="st0" d="M196.6,80.3c21.5,0,38.4,1,56.7,4.1c19.9,3.4,38.6,8,53.6,16.5c1.1,0.6,2,1,3.4,2
	c5.9,3.8,13.1,9.8,14.5,17.9c1.1,6.6-2,11.8-5.2,15.6c-3.4,3.9-7.6,6.9-12.1,9.5c-18.3,10.4-42.3,15.9-67.3,18.8
	c-11.6,1.3-23.7,2.3-38,2.3c-13.9,0-26.1-0.5-38-1.7c-24-2.4-49.2-7.4-68.2-17.1c-4.7-2.4-9.1-5-13.1-8.5c-3.8-3.3-7.4-7.5-8.3-13.1
	c-1.7-9.6,5-16.5,10.7-20.9c6-4.6,13.8-8.4,21.2-11.2c15.4-5.8,34.1-9.6,52.6-11.8C171.3,81.2,182.2,80.3,196.6,80.3z M197.2,89
	c-16.6,0-32.6,3-46.4,8.1c-6.8,2.5-12.8,5.5-18.2,10.1c-4.6,3.9-10.2,10.2-8.8,18.7c1.1,7.4,7,12.6,12,16.2c5.5,3.9,12.3,6.9,19.1,9
	c14.7,4.7,31.1,6.8,48.2,6.7c16.1-0.2,33.2-3,46.5-8.2c6.6-2.6,12.9-5.8,18.1-10.1c4.7-4,9.9-10.5,8.5-18.6
	c-1.1-7.2-6.7-12.5-12-16.2c-5.9-4-12.1-6.7-19.1-9c-10.8-3.6-22.9-5.8-34.6-6.3c-3.7-0.2-8.5-0.5-13-0.3
	C197.3,89,197.2,89,197.2,89z M31.1,183.3c7.1,0,13.5-0.1,19.2,1.1c2,0.4,4.1,1.1,4.8,2.6c0.6,1.3,0.4,3.6,0.4,7
	c0,6.2,0,11.8,0,18.2c0,1.1,0.1,2.7-0.2,3.5c-0.9,2.6-6.2,3.2-8.7,3.5c-7.1,0.7-15.6,0.7-22.9,0c-2.9-0.3-8-0.9-9-3.3
	c-0.6-1.4-0.3-4.8-0.3-7c0-5.2,0-9.1,0-14.5c0-2.6-0.4-6,0.6-7.5s4.4-2.5,7.2-2.9C25.3,183.5,27.6,183.3,31.1,183.3z M30.5,187.8
	c-0.3,0.6-0.2,2.3-0.2,3.3c0,6.1,0,11.2,0,17.3c0,2.1-0.4,5.5,0.2,6.7c0.6,1.1,2.5,1.1,4.3,1.2c1.4,0,3.7,0.1,4.4-1.1
	c0.6-1.1,0.2-4.4,0.2-6.6c0-5.5,0-8.3,0-13.8c0-1.4,0.4-5.6-0.1-6.8c-0.6-1.4-4.4-1.3-5.6-1.2C32.9,186.8,31,186.8,30.5,187.8z
	 M92.7,183.7c6.4,0,13.5,0,20.1,0c4.6,11.7,9.2,23.4,13.8,35.2c-6.1,0-12.1,0-18.2,0c-1-2.9-2-5.9-2.9-8.7c-3.4-0.1-7.3-0.1-10.8,0
	c-0.9,2.8-1.7,5.9-2.6,8.7c-4.1,0-8.2,0-12.4,0c3.1-8.7,6.4-17.6,9.5-26.4C90.5,189.6,91.7,186.2,92.7,183.7z M95.7,206.1
	c2.8-0.1,6.1-0.1,8.8,0c-1.5-4.6-3.1-9.3-4.8-13.8C98.4,196.9,97,201.5,95.7,206.1z M170.7,185.1c0-0.5,0.2-1.5-0.2-1.5
	c-5.3,0.1-11.6-0.1-17.1,0.1c0.2,11.5,0,23.8,0.1,35.2c5.8,0,11.5,0,17.3,0c0-5.1,0-10.3,0-15.4c3.1,5,5.9,10.5,9,15.4
	c6.1,0,12.1,0,18.3,0c-4-6.8-8.4-13.9-12.6-20.7c4.2-4.4,8.6-9.2,12.7-13.8c0.2-0.2,0.8-0.4,0.6-0.8c-3.6,0.1-7.4,0.1-11,0.1
	c-1.1,0-2.8-0.3-3.7,0c-0.4,0.1-1.2,1.1-1.7,1.6c-3.9,4.3-7.8,8.6-11.6,12.5C170.7,193.8,170.7,189.1,170.7,185.1z M225,183.8
	c0,11.5,0.1,24.3-0.1,35.1c11.5,0,22.9,0,34.4,0c0-1.5,0-3.1,0-4.6c-5.5-0.2-11.4,0-17.2-0.1c0-9.9,0-20.4,0-30.5
	c-5.8,0-11.4,0-17.2,0C225.1,183.5,224.8,183.8,225,183.8z M284.8,183.8c0,11.7,0,23.4,0,35.1c11.2,0,22.5,0,33.7,0c0-1.5,0-3,0-4.5
	c-5.4-0.1-11.1,0.1-16.3-0.1c0-3.7,0-7.5,0-11.2c4.2,0,8.4,0,12.7,0c-0.1-1.1,0-2.6-0.1-4.1c-4.1-0.2-8.5,0-12.7-0.1
	c0.1-3.6-0.1-7.4,0.1-10.8c5.4,0,11,0,16.4,0c0-1.5,0-3,0-4.5c-11.2,0-22.5,0-33.7,0C284.9,183.6,284.8,183.7,284.8,183.8z
	 M372.4,183.7c-2.7,4.3-5.1,8.8-7.7,13.1c-2.6-4.4-4.9-8.8-7.7-13.1c-6.1,0-12.1,0-18.2,0c4.2,6.4,8.6,13,13,19.5
	c0.6,0.9,1.7,2.1,1.8,2.9c0.2,0.9,0,2.2,0,3.3c0,3.4,0,6.6,0,9.8c5.8-0.1,11.7,0.1,17.4-0.1c-0.2-3.8,0-8.7-0.1-12.9
	c4.8-7.4,10.1-14.9,14.8-22.3c0,0,0-0.1-0.1-0.1C381.3,183.8,376.8,183.6,372.4,183.7z"/>
</svg>
