<svg width="126" height="116" viewBox="0 0 126 116" fill="none" xmlns="http://www.w3.org/2000/svg">
<path fill-rule="evenodd" clip-rule="evenodd" d="M63.263 77.3258C51.7181 77.3258 42.359 68.6733 42.359 58C42.359 47.3267 51.7181 38.6742 63.263 38.6742C74.808 38.6742 84.1671 47.3267 84.1671 58C84.1671 68.6733 74.808 77.3258 63.263 77.3258ZM126 66.742V49.2578L111.094 45.7564C110.001 42.0978 108.431 38.6229 106.447 35.3924L114.311 23.1694L100.938 10.8061L87.717 18.076C84.2224 16.2425 80.4637 14.7906 76.5065 13.7799L72.719 0H53.8069L50.0196 13.7799C46.0622 14.7906 42.3035 16.2425 38.8091 18.076L25.588 10.8061L12.215 23.1694L20.0784 35.3924C18.0956 38.6229 16.5249 42.098 15.4316 45.7564L0.526367 49.2578V66.742L15.4316 70.2436C16.5249 73.902 18.0956 77.3769 20.0784 80.6077L12.215 92.8306L25.588 105.194L38.8091 97.924C42.3035 99.7573 46.0622 101.209 50.0196 102.22L53.8069 116H72.719L76.5065 102.22C80.4637 101.209 84.2224 99.7573 87.717 97.924L100.938 105.194L114.311 92.8306L106.447 80.6077C108.431 77.3769 110.001 73.902 111.094 70.2436L126 66.742Z" fill="#FCD980"/>
</svg>
