<svg width="43" height="45" viewBox="0 0 43 45" fill="none" xmlns="http://www.w3.org/2000/svg">
<g filter="url(#filter0_d_757_719)">
<path fill-rule="evenodd" clip-rule="evenodd" d="M19.0555 12.5544C19.0502 12.7706 19.0887 12.8746 19.2871 12.8748H24.0598C24.924 12.939 25.6974 13.1546 26.3513 13.5746C26.8053 13.8663 27.1365 14.2127 27.3865 14.5967C27.8301 15.2784 28.0808 16.2613 28.2165 17.0549C28.275 17.398 28.3025 17.7188 28.2399 17.8675C28.2103 17.9375 28.1665 17.9848 28.1069 18.0072C27.7788 18.1317 27.4319 17.7039 27.247 17.4991C26.3669 16.5243 25.0876 16.121 23.5792 16.0453H19.216C19.0598 16.0709 19.0044 16.1802 19.02 16.3489V17.5124C19.0109 17.8991 18.805 18.0307 18.3968 17.9002L14.6398 15.1084L14.2703 14.8337L14.1758 14.7635C13.8738 14.5063 13.998 14.2722 14.269 14.07L14.5558 13.8563L18.1559 11.1728C18.5952 10.8452 19.0555 10.7575 19.0555 11.4636V12.5544ZM23.2364 24.4274C23.2418 24.211 23.2034 24.107 23.005 24.1068H18.2323C17.3681 24.0426 16.5947 23.8272 15.9408 23.407C15.484 23.1135 15.1514 22.7647 14.901 22.378C14.4479 21.678 14.1525 20.5386 14.0441 19.7208C14.0095 19.46 14.0024 19.2326 14.0523 19.1143C14.0818 19.0442 14.1258 18.9969 14.1852 18.9744C14.5133 18.8499 14.8602 19.2777 15.0451 19.4825C15.9254 20.4573 17.2047 20.8606 18.7131 20.9363H23.0763C23.2323 20.9109 23.2878 20.8014 23.2722 20.6327V19.4692C23.2813 19.0825 23.4872 18.9509 23.8955 19.0814L27.6523 21.8732L28.0219 22.1479L28.1164 22.2181C28.4184 22.4753 28.2942 22.7094 28.0231 22.9116L27.7364 23.1253L24.1365 25.8088C23.6971 26.1364 23.2367 26.2241 23.2367 25.518L23.2364 24.4274Z" fill="#88F1DB"/>
</g>
<defs>
<filter id="filter0_d_757_719" x="0" y="0.926758" width="42.292" height="43.1279" filterUnits="userSpaceOnUse" color-interpolation-filters="sRGB">
<feFlood flood-opacity="0" result="BackgroundImageFix"/>
<feColorMatrix in="SourceAlpha" type="matrix" values="0 0 0 0 0 0 0 0 0 0 0 0 0 0 0 0 0 0 127 0" result="hardAlpha"/>
<feOffset dy="4"/>
<feGaussianBlur stdDeviation="7"/>
<feComposite in2="hardAlpha" operator="out"/>
<feColorMatrix type="matrix" values="0 0 0 0 0.533333 0 0 0 0 0.945098 0 0 0 0 0.858824 0 0 0 1 0"/>
<feBlend mode="normal" in2="BackgroundImageFix" result="effect1_dropShadow_757_719"/>
<feBlend mode="normal" in="SourceGraphic" in2="effect1_dropShadow_757_719" result="shape"/>
</filter>
</defs>
</svg>
