<svg width="7" height="23" viewBox="0 0 7 23" fill="none" xmlns="http://www.w3.org/2000/svg">
<path d="M6.25511 12.4744C4.89499 12.7277 4.21493 13.4276 4.21493 14.574C4.21493 15.0806 4.2816 15.9471 4.41495 17.1735C4.54829 18.48 4.61496 19.4264 4.61496 20.013C4.61496 20.9728 4.34161 21.706 3.79489 22.2126C3.26152 22.7192 2.54145 22.9725 1.63471 22.9725H0.474609V21.3927H1.29468C1.81472 21.3927 2.20142 21.2728 2.45478 21.0328C2.70813 20.8062 2.83481 20.4263 2.83481 19.893C2.83481 19.5064 2.80814 19.0332 2.75481 18.4733C2.70147 17.9001 2.66813 17.5135 2.6548 17.3135C2.52145 16.0337 2.45478 15.1006 2.45478 14.514C2.45478 13.8075 2.62813 13.2143 2.97482 12.7344C3.33485 12.2545 3.88157 11.9345 4.61496 11.7745V11.7346C3.88157 11.5746 3.33485 11.2613 2.97482 10.7947C2.62813 10.3148 2.45478 9.72159 2.45478 9.01506C2.45478 8.4285 2.52145 7.49534 2.6548 6.21558C2.66813 6.01562 2.70147 5.63569 2.75481 5.0758C2.80814 4.50257 2.83481 4.02266 2.83481 3.63606C2.83481 3.10283 2.70813 2.7229 2.45478 2.49628C2.20142 2.25632 1.81472 2.13635 1.29468 2.13635H0.474609V0.556641H1.63471C2.54145 0.556641 3.26152 0.809927 3.79489 1.3165C4.34161 1.82307 4.61496 2.55627 4.61496 3.51609C4.61496 4.10264 4.54829 5.04913 4.41495 6.35556C4.2816 7.58199 4.21493 8.4485 4.21493 8.95507C4.21493 10.1015 4.89499 10.8014 6.25511 11.0547V12.4744Z" fill="#1C1E53"/>
</svg>
